<svg xmlns="http://www.w3.org/2000/svg" version="1.1" xmlns:xlink="http://www.w3.org/1999/xlink" preserveAspectRatio="none" x="0px" y="0px" width="282px" height="95px" viewBox="0 0 282 95">
<defs>
<g id="Layer0_0_FILL">
<path fill="#000000" fill-opacity="0.9921568627450981" stroke="none" d="
M 275.85 10.5
Q 275.85 8.05 274.1 6.35 272.4 4.65 270 4.65 267.55 4.65 265.85 6.35 264.1 8.05 264.1 10.5 264.1 12.95 265.85 14.65 267.55 16.35 270 16.35 272.4 16.35 274.1 14.65 275.85 12.95 275.85 10.5
M 273.65 6.85
Q 275.15 8.35 275.15 10.5 275.15 12.65 273.65 14.15 272.1 15.65 270 15.65 267.85 15.65 266.3 14.15 264.8 12.65 264.8 10.5 264.8 8.35 266.3 6.85 267.85 5.35 270 5.35 272.1 5.35 273.65 6.85
M 272.5 8.75
Q 272.5 7.8 271.8 7.25 271.1 6.7 269.8 6.7
L 267.7 6.7 267.7 14.15 268.75 14.15 268.75 11.05 269.4 11.05
Q 270.1 11.05 270.75 12.35
L 271.55 14.15 272.8 14.15 271.85 12.2
Q 271.25 10.95 270.6 10.8
L 270.6 10.75
Q 271.5 10.6 272 10.05 272.5 9.5 272.5 8.75
M 270.95 7.9
Q 271.4 8.2 271.4 8.85 271.4 10.15 269.85 10.15
L 268.75 10.15 268.75 7.6 269.65 7.6
Q 270.55 7.6 270.95 7.9
M 16.35 80.35
L 12.5 90.7 49.95 80.35 16.35 80.35
M 252.9 23
Q 250.4 22.1 246.85 22.1
L 31.6 22.1
Q 30.45 22.1 29.3 22.5 28.2 22.9 27.3 23.6 26.3 24.35 25.55 25.35 24.8 26.35 24.45 27.4
L 6.3 80.35 16.35 80.35 33.2 32.65 50.6 32.65
Q 50.65 32.65 50.75 32.65
L 137.2 32.65
Q 135.1 35.55 133.95 39.8 132.95 43.25 130.65 44.8 129.45 45.6 127.9 45.9
L 96.3 45.9
Q 96.7 44.85 97.1 43.8 97.1 43.55 97.3 43.3 97.45 42.75 97.7 42.05
L 86.35 42.05 78.3 65.55
Q 77.5 67.85 77.35 69.8
L 58.45 69.8 51.5 61.3
Q 53.4 61.3 55.85 60.9 58.15 60.4 60.75 59.45 63.15 58.4 65.75 56.9 68.25 55.3 70.55 53.15 72.8 50.95 74.7 48.15 75.95 46.05 76.9 43.8 76.9 43.55 77.05 43.3 77.2 42.75 77.4 42.05
L 67 42.05
Q 66.8 42.75 66.55 43.3 66.4 43.55 66.3 43.8 65.9 44.65 65.3 45.4 64.05 47 62.55 48.05 60.9 49.2 59.05 49.9 57.25 50.55 55.15 50.7
L 38.75 50.7 35.2 61.3 49.95 80.35 94.4 80.35 102.2 78.1
Q 103.5 77.7 104.85 77.35
L 113 75.1
Q 122.35 72.45 131.65 69.85
L 101.35 69.85 101.35 69.8 91.5 69.8
Q 89.5 69.75 88.85 68.7 88.4 68.05 91.5 59.15
L 91.65 59.15 92.65 56.55 169.1 56.55
Q 170.6 56.55 171.65 57.05 172.4 57.4 172.85 58 173 58.2 173.15 58.4 173.75 59.3 173.65 60.55 173.85 61.7 173.25 63.2 172.25 66.2 170 68.05 167.7 69.75 164.7 69.8
L 145.8 69.8 108.25 80.35 178.15 80.35
Q 180.4 74.4 182.65 67.35 185 60.05 184.9 57.65 185.1 55.15 184.4 53.2 183.75 51.3 182.5 49.95 181.25 48.55 179.75 47.65 179.4 47.45 179.05 47.3 177.7 46.7 176.35 46.4 174.6 45.9 172.85 45.9
L 148.45 45.9
Q 145.45 45.9 144.35 44.15 143.4 42.35 144.3 39.45 144.35 39.4 144.35 39.3 145.35 36.3 147.7 34.5 148.55 33.8 149.55 33.4
L 150.8 32.9
Q 151.75 32.65 152.8 32.65
L 205.05 32.65
Q 203.9 34.55 203.05 36.9
L 188.05 80.35 198.25 80.35 235.95 69.8 202.35 69.8 213.6 36.9
Q 214.3 34.8 215.8 33.75 217.1 32.75 219.1 32.65
L 243.15 32.65
Q 245.25 32.65 246.65 33.35 248 34 248.65 35.15 249.35 36.3 249.4 38 249.6 39.65 249.1 41.65
L 247.4 46.5
Q 246.75 48.45 245.5 50.15 244.35 51.7 242.75 52.8 241.25 53.95 239.35 54.65 237.45 55.3 235.35 55.45
L 225.45 55.45 221.3 66.05 231.75 66.05
Q 233.7 66.05 236.1 65.6 238.45 65.1 240.95 64.2 243.4 63.2 245.9 61.65 248.4 60.15 250.75 57.95 253 55.8 254.9 52.9 256.75 50.05 257.9 46.5
L 259.55 41.65
Q 260.25 39.75 260.55 37.5 261 35.25 260.65 33.15 260.5 30.9 259.65 28.9 258.75 26.9 257.05 25.4 255.4 23.9 252.9 23 Z"/>

<path fill="#DD1823" fill-opacity="0.9921568627450981" stroke="none" d="
M 245.05 80.8
L 250.2 70.5 211.6 80.8 245.05 80.8 Z"/>
</g>
</defs>

<g transform="matrix( 1, 0, 0, 1, 0,0) ">
<use xlink:href="#Layer0_0_FILL"/>
</g>
</svg>
